<!-- Generated by IcoMoon.io -->
<svg version="1.1" xmlns="http://www.w3.org/2000/svg" width="32" height="32" viewBox="0 0 32 32">
<title>twitter</title>
<path d="M0 0v32h32v-32h-32zM25.149 12.316c0.277 6.156-4.313 13.020-12.44 13.020-2.472 0-4.772-0.724-6.709-1.967 2.323 0.273 4.64-0.371 6.48-1.812-1.916-0.036-3.532-1.301-4.088-3.040 0.687 0.131 1.361 0.092 1.976-0.075-2.105-0.423-3.557-2.319-3.511-4.347 0.589 0.328 1.265 0.525 1.981 0.548-1.948-1.303-2.5-3.876-1.355-5.844 2.159 2.648 5.384 4.391 9.021 4.573-0.639-2.737 1.439-5.373 4.264-5.373 1.259 0 2.396 0.531 3.195 1.383 0.997-0.196 1.935-0.56 2.78-1.061-0.327 1.023-1.021 1.88-1.924 2.421 0.885-0.107 1.729-0.341 2.513-0.689-0.587 0.875-1.329 1.645-2.184 2.263z"></path>
</svg>
