<!-- Generated by IcoMoon.io -->
<svg version="1.1" xmlns="http://www.w3.org/2000/svg" width="32" height="32" viewBox="0 0 32 32">
<title>vk</title>
<path d="M0 0v32h32v-32h-32zM25.667 22.661h-2.844c-1.607 0-1.88-0.916-3.203-2.239-1.196-1.196-1.859-0.279-1.832 1.424 0.008 0.452-0.215 0.815-0.755 0.815-1.685 0-4.107 0.237-6.557-2.408-2.511-2.711-5.143-8.148-5.143-8.684 0-0.316 0.261-0.459 0.699-0.459h2.893c0.765 0 0.831 0.379 1.044 0.865 0.889 2.028 3.020 6.099 3.587 3.827 0.325-1.304 0.459-4.327-0.937-4.587-0.792-0.147 0.603-0.995 2.624-0.995 0.503 0 1.048 0.055 1.607 0.183 1.025 0.239 1.028 0.697 1.015 1.368-0.052 2.537-0.359 4.245 0.311 4.676 0.639 0.413 2.319-2.289 3.204-4.375 0.244-0.577 0.293-0.963 0.98-0.963h3.54c1.852 0-0.243 2.663-1.844 4.743-1.291 1.673-1.221 1.707 0.277 3.099 1.069 0.992 2.333 2.347 2.333 3.115 0.001 0.363-0.281 0.595-0.999 0.595z"></path>
</svg>
