<svg aria-hidden="true" style="position: absolute; width: 0; height: 0; overflow: hidden;" version="1.1" xmlns="http://www.w3.org/2000/svg" xmlns:xlink="http://www.w3.org/1999/xlink">
<defs>
<symbol id="icon-pen" viewBox="0 0 32 32">
<path d="M32.001 11.379l-14.804 14.957-7.864 1.664 1.815-7.712 14.805-14.955 6.048 6.045zM0.001 25.333l-0.001 2.667h6.667v-2.667h-6.665z"></path>
</symbol>
<symbol id="icon-profile" viewBox="0 0 32 32">
<path d="M27.763 24.128c-4.585-1.059-8.853-1.987-6.787-5.891 6.293-11.883 1.668-18.237-4.976-18.237-6.776 0-11.285 6.599-4.976 18.237 2.129 3.927-2.3 4.855-6.787 5.891-4.097 0.947-4.251 2.981-4.237 6.539l0.005 1.333h31.987l0.005-1.292c0.016-3.584-0.123-5.629-4.235-6.58z"></path>
</symbol>
<symbol id="icon-arrow" viewBox="0 0 32 32">
<path d="M6.667 4l4.076-4 15.924 16-15.924 16-4.076-4 12-12z"></path>
</symbol>
<symbol id="icon-home" viewBox="0 0 32 32">
<path d="M28 17.333v13.333h-8v-8h-8v8h-8v-13.333h-4l16-16 16 16h-4zM26.667 9.457v-6.791h-4v2.791l4 4z"></path>
</symbol>
<symbol id="icon-cross" viewBox="0 0 32 32">
<path d="M32 26.917l-11.087-10.945 10.933-11.043-4.929-4.929-10.949 11.091-11.080-10.937-4.888 4.888 11.095 10.987-10.941 11.084 4.888 4.888 10.983-11.091 11.047 10.937z"></path>
</symbol>
</defs>
</svg>
